<?xml version="1.0"?>
<svg xmlns="http://www.w3.org/2000/svg" xmlns:xlink="http://www.w3.org/1999/xlink" xmlns:svgjs="http://svgjs.com/svgjs" version="1.1" width="512" height="512" x="0" y="0" viewBox="0 0 512 512" style="enable-background:new 0 0 512 512" xml:space="preserve" class=""><g>
<path xmlns="http://www.w3.org/2000/svg" style="" d="M512,124.355L405.406,17.709v84.695h-10.435c-92.763,0-138.917,75.524-179.637,142.158  c-39.73,65.009-74.04,121.155-142.191,121.155H0v43.886h73.143c92.763,0,138.917-75.524,179.637-142.158  c39.73-65.011,74.04-121.157,142.191-121.157h10.435v84.686L512,124.355z" fill="#000000" data-original="#56545a" class=""/>
<path xmlns="http://www.w3.org/2000/svg" style="" d="M512,387.669L405.406,281.024v84.694h-10.435c-68.152,0-102.461-56.146-142.191-121.157  c-40.72-66.633-86.875-142.158-179.637-142.158H0v43.886h73.143c68.152,0,102.461,56.146,142.191,121.157  c40.72,66.633,86.875,142.158,179.637,142.158h10.435v84.686L512,387.669z" fill="#000000" data-original="#88888f" class=""/>
<path xmlns="http://www.w3.org/2000/svg" style="" d="M512,124.355L405.406,17.709v84.695h-10.435c-78.927,0-124.109,54.674-160.914,112.029v83.144  c6.453-10.054,12.649-20.19,18.723-30.129c39.73-65.011,74.04-121.157,142.191-121.157h10.435v84.686L512,124.355z" fill="#000000" data-original="#424144" class=""/>
<path xmlns="http://www.w3.org/2000/svg" style="" d="M512,387.669L405.406,281.024v84.694h-10.435c-68.152,0-102.461-56.146-142.191-121.157  c-6.074-9.939-12.27-20.075-18.723-30.129v83.144c36.805,57.353,81.987,112.029,160.914,112.029h10.435v84.686L512,387.669z" fill="#000000" data-original="#56545a" class=""/>
<g xmlns="http://www.w3.org/2000/svg">
</g>
<g xmlns="http://www.w3.org/2000/svg">
</g>
<g xmlns="http://www.w3.org/2000/svg">
</g>
<g xmlns="http://www.w3.org/2000/svg">
</g>
<g xmlns="http://www.w3.org/2000/svg">
</g>
<g xmlns="http://www.w3.org/2000/svg">
</g>
<g xmlns="http://www.w3.org/2000/svg">
</g>
<g xmlns="http://www.w3.org/2000/svg">
</g>
<g xmlns="http://www.w3.org/2000/svg">
</g>
<g xmlns="http://www.w3.org/2000/svg">
</g>
<g xmlns="http://www.w3.org/2000/svg">
</g>
<g xmlns="http://www.w3.org/2000/svg">
</g>
<g xmlns="http://www.w3.org/2000/svg">
</g>
<g xmlns="http://www.w3.org/2000/svg">
</g>
<g xmlns="http://www.w3.org/2000/svg">
</g>
</g></svg>
